<svg xmlns="http://www.w3.org/2000/svg" viewBox="0 0 24 24" width="24" height="24" color="#ffffff" fill="none">
    <defs />
    <path fill="#141B34" d="M10.25,6 C10.25,5.586 10.586,5.25 11,5.25 L15.5,5.25 C18.399,5.25 20.75,7.601 20.75,10.5 C20.75,13.399 18.399,15.75 15.5,15.75 L5.463,15.75 C5.627,15.908 5.807,16.07 5.992,16.23 C6.354,16.544 6.718,16.837 6.993,17.051 C7.13,17.158 7.244,17.245 7.323,17.305 C7.363,17.335 7.442,17.394 7.463,17.41 C7.796,17.655 7.85,18.111 7.604,18.445 C7.358,18.778 6.889,18.849 6.555,18.604 C6.532,18.587 6.461,18.534 6.419,18.502 C6.334,18.438 6.214,18.346 6.07,18.234 C5.782,18.009 5.396,17.7 5.008,17.363 C4.624,17.029 4.22,16.654 3.907,16.299 C3.751,16.122 3.601,15.933 3.487,15.743 C3.384,15.574 3.25,15.308 3.25,15 C3.25,14.692 3.384,14.426 3.487,14.257 C3.601,14.067 3.751,13.878 3.907,13.701 C4.22,13.346 4.624,12.971 5.008,12.637 C5.396,12.3 5.782,11.991 6.07,11.766 C6.214,11.654 6.334,11.562 6.419,11.498 C6.461,11.467 6.529,11.415 6.554,11.397 L6.555,11.396 C6.889,11.151 7.358,11.222 7.604,11.555 C7.843,11.88 7.782,12.335 7.469,12.585 C7.448,12.601 7.363,12.665 7.323,12.695 C7.244,12.755 7.13,12.842 6.993,12.949 C6.718,13.163 6.354,13.456 5.992,13.77 C5.807,13.93 5.627,14.092 5.463,14.25 L15.5,14.25 C17.571,14.25 19.25,12.571 19.25,10.5 C19.25,8.429 17.571,6.75 15.5,6.75 L11,6.75 C10.586,6.75 10.25,6.414 10.25,6 Z" />
</svg>